# xmcd CD database file
#
# Track frame offsets:
#	150
#	38188
#	52150
#	71170
#	86588
#	99708
#	113946
#	137053
#	151745
#	171518
#	182604
#	194145
#	222417
#
# Disc length: 3174 seconds
#
# Revision: 1
# Processed by: cddbd v1.5.1PL0 Copyright (c) Steve Scherf et al.
# Submitted via: CDValet v3.40 - Copyright (c) 1996 - 1998 Greg Leichner
#
DISCID=c80c640d
DTITLE=Wayne Hancock - Wild, Free and Reckless
DYEAR=1900
DGENRE=
TTITLE0=Video Track
TTITLE1=Kansas City Blues
TTITLE2=Lookin For Better Days
TTITLE3=Flat Land Boogie
TTITLE4=Smell That Bread
TTITLE5=Blue Suede
TTITLE6=Tonight The Rain is Coming Down
TTITLE7=Drive On
TTITLE8=Going Back To Texas
TTITLE9=Wild Free And Reckless
TTITLE10=That's Why I Ride
TTITLE11=Saturday Night
TTITLE12=Gone Gone Gone
EXTD=
EXTT0=
EXTT1=
EXTT2=
EXTT3=
EXTT4=
EXTT5=
EXTT6=
EXTT7=
EXTT8=
EXTT9=
EXTT10=
EXTT11=
EXTT12=
PLAYORDER=
